<?xml version="1.0" encoding="utf-8"?>
<!-- Generator: Adobe Illustrator 26.0.2, SVG Export Plug-In . SVG Version: 6.00 Build 0)  -->
<svg version="1.1" xmlns="http://www.w3.org/2000/svg" xmlns:xlink="http://www.w3.org/1999/xlink" x="0px" y="0px"
	 viewBox="0 0 257 46" style="enable-background:new 0 0 257 46;" xml:space="preserve">
<style type="text/css">
	.st0{fill:#4289FF;}
	.st1{opacity:0.5;fill:url(#SVGID_1_);enable-background:new    ;}
	.st2{opacity:0.5;fill:url(#SVGID_00000183954354194005083660000013326876129505212593_);enable-background:new    ;}
</style>
<g id="Layer_2">
</g>
<g id="Layer_1">
	<g id="Layer_2_00000049216911214102415380000011611192971116202687_">
	</g>
	<g>
		<g>
			<path class="st0" d="M28.6,27.2c-0.3,0.5-0.7,1-1.1,1.4L23.1,33l-9,8.8c-2.4,2.4-1.7,4.3,1.8,4.3h14.2c10.8,0,19.8-8,22-18.2
				c0-0.2,0.1-0.3,0.1-0.5c0,0,0-0.1,0-0.1H28.6z"/>
			<path class="st0" d="M100.5,16.8c-0.8-0.8-1.8-1.4-2.8-1.8c-1.1-0.4-2.2-0.6-3.5-0.6c-1.3,0-2.5,0.2-3.5,0.6
				c-1.1,0.4-2,1-2.8,1.8c-0.9,0.8-1.5,1.8-1.9,2.8c-0.4,1-0.6,2.2-0.6,3.4s0.2,2.4,0.7,3.4c0.4,1,1.1,2,1.9,2.8
				c0.8,0.8,1.8,1.4,2.9,1.8c1.1,0.4,2.2,0.6,3.5,0.6s2.5-0.2,3.5-0.6c1.1-0.4,2-1,2.9-1.8c0.8-0.8,1.5-1.7,1.9-2.8
				c0.4-1,0.7-2.2,0.7-3.4s-0.2-2.4-0.7-3.4C102,18.5,101.4,17.5,100.5,16.8z M97.1,26.2c-0.8,0.8-1.8,1.3-3,1.3s-2.2-0.4-3-1.3
				c-0.8-0.8-1.2-1.9-1.2-3.2s0.4-2.4,1.2-3.3c0.8-0.8,1.8-1.3,3-1.3s2.2,0.4,3,1.3c0.8,0.9,1.2,2,1.2,3.3S97.9,25.4,97.1,26.2z"/>
			<polygon class="st0" points="119,23.5 111,14.7 107,14.7 107,31.2 111.7,31.2 111.7,21.9 120,31.2 123.6,31.2 123.6,14.7 
				119,14.7 			"/>
			<path class="st0" d="M21.2,20.5L2.7,2.5C2.6,2.4,2.4,2.2,2.2,2c-1-0.6-1.8-0.3-2,0.9C0.1,3.2,0.1,3.4,0.1,3.5v38.8
				c0,0.3,0,0.5,0,0.7c0.2,1.2,1,1.6,2,0.9c0.2-0.2,0.4-0.3,0.6-0.5l18.5-18C22.6,24,22.6,21.9,21.2,20.5z"/>
			<path class="st0" d="M23.1,13l4.4,4.2c0.4,0.4,0.8,0.9,1.1,1.4h23.5c0-0.2-0.1-0.3-0.1-0.5C49.8,8,40.8,0,30,0H15.8
				c-3.4,0-4.2,1.9-1.7,4.3L23.1,13z"/>
			<path class="st0" d="M78.8,16.5c-0.8-0.6-1.7-1.1-2.7-1.3c-1-0.3-2.3-0.4-4-0.4h-6.3v16.5h6.3c1.6,0,2.9-0.1,3.7-0.3
				c0.9-0.2,1.7-0.5,2.4-1c1.2-0.8,2.2-1.8,2.9-3s1-2.5,1-4c0-1.3-0.3-2.6-0.8-3.7C80.7,18.2,79.9,17.2,78.8,16.5z M76,26.2
				c-0.8,0.8-1.8,1.2-3,1.2h-2.6v-8.7H73c1.3,0,2.2,0.4,3,1.2c0.9,0.8,1.2,1.8,1.2,3.1S76.8,25.2,76,26.2z"/>
			<polygon class="st0" points="143.3,14.7 138,14.7 133.1,21 133.1,14.7 128.4,14.7 128.4,31.2 133.1,31.2 133.1,24.5 138.6,31.2 
				144.7,31.2 137.4,22.4 			"/>
			<path class="st0" d="M227.4,16.5c-0.7-0.5-1.5-0.8-2.3-1s-1.8-0.3-3-0.3h-5.8V31h5.8c1.2,0,2.2-0.1,3-0.3c0.9-0.2,1.6-0.6,2.3-1
				c1.1-0.7,1.9-1.6,2.5-2.8c0.6-1.1,0.9-2.4,0.9-3.8c0-1.4-0.3-2.6-0.9-3.7C229.3,18,228.5,17.2,227.4,16.5z M226.7,27.2
				c-1.1,1-2.6,1.5-4.6,1.5h-3.6V17.2h3.6c2,0,3.5,0.5,4.6,1.5c1.1,1,1.7,2.4,1.7,4.2C228.3,24.8,227.8,26.2,226.7,27.2z"/>
			<path class="st0" d="M250.2,15h-1.7l-6.9,15.8h2.3l2-4.7h6.7l2,4.7h2.3L250.2,15z M246.9,24.2l2.4-5.7l2.5,5.7H246.9z"/>
			<polygon class="st0" points="203.6,24 210.7,24 210.7,21.9 203.6,21.9 203.6,17 210.9,17 210.9,15 201.3,15 201.3,30.9 
				211.1,30.9 211.1,28.9 203.6,28.9 			"/>
			<rect x="235.8" y="15" class="st0" width="2.3" height="15.8"/>
			<polygon class="st0" points="151.4,24.5 157.7,24.5 157.7,20.9 151.4,20.9 151.4,18.4 158,18.4 158,14.7 146.8,14.7 146.8,31.2 
				158.2,31.2 158.2,27.5 151.4,27.5 			"/>
			<path class="st0" d="M173.5,24c-0.2-0.2-0.4-0.3-0.5-0.5c0.7-0.4,1.2-0.9,1.6-1.4c0.5-0.7,0.7-1.5,0.7-2.5c0-1.7-0.6-2.9-1.7-3.8
				c-1.1-0.8-2.8-1.2-5-1.2h-6.2V31h4.7v-6.5h0.1c0.7,0,1.2,0.1,1.6,0.3c0.4,0.2,0.7,0.7,1,1.3l2.1,4.8h5.3l-2.8-5.9
				C174.2,24.8,173.9,24.2,173.5,24z M170.1,20.8c-0.3,0.2-0.8,0.4-1.4,0.4h-1.6v-3h1.5c0.6,0,1.1,0.1,1.4,0.4
				c0.4,0.3,0.5,0.6,0.5,1.1S170.4,20.5,170.1,20.8z"/>
			<polygon class="st0" points="188,21.7 182.3,15 180.3,15 180.3,30.9 182.5,30.9 182.5,18.5 188,24.9 193.4,18.5 193.4,30.9 
				195.6,30.9 195.6,15 193.7,15 			"/>
		</g>
		<g id="Layer_2_00000042724066782577395120000016776977559268440499_">
			
				<linearGradient id="SVGID_1_" gradientUnits="userSpaceOnUse" x1="28.6388" y1="-1004.8" x2="52.5043" y2="-1004.8" gradientTransform="matrix(1 0 0 -1 0 -984)">
				<stop  offset="2.770450e-07" style="stop-color:#4289FF"/>
				<stop  offset="9.329176e-03" style="stop-color:#4187FA;stop-opacity:0.9907"/>
				<stop  offset="0.1122" style="stop-color:#3A6FC7;stop-opacity:0.8878"/>
				<stop  offset="0.2199" style="stop-color:#34599B;stop-opacity:0.7801"/>
				<stop  offset="0.3306" style="stop-color:#2F4775;stop-opacity:0.6694"/>
				<stop  offset="0.4449" style="stop-color:#2B3956;stop-opacity:0.5551"/>
				<stop  offset="0.5642" style="stop-color:#272D3E;stop-opacity:0.4358"/>
				<stop  offset="0.6905" style="stop-color:#25252D;stop-opacity:0.3095"/>
				<stop  offset="0.8284" style="stop-color:#232123;stop-opacity:0.1716"/>
				<stop  offset="1" style="stop-color:#231F20;stop-opacity:0"/>
			</linearGradient>
			<path class="st1" d="M52.1,18.7H28.6c0.8,1.3,1.3,2.7,1.3,4.3h22.6C52.5,21.6,52.4,20.1,52.1,18.7z"/>
			
				<linearGradient id="SVGID_00000132785517639328889910000000593320100900464540_" gradientUnits="userSpaceOnUse" x1="28.639" y1="-1009.1" x2="52.5043" y2="-1009.1" gradientTransform="matrix(1 0 0 -1 0 -984)">
				<stop  offset="0" style="stop-color:#231F20;stop-opacity:0"/>
				<stop  offset="0.1716" style="stop-color:#232123;stop-opacity:0.1716"/>
				<stop  offset="0.3095" style="stop-color:#25252D;stop-opacity:0.3095"/>
				<stop  offset="0.4358" style="stop-color:#272D3E;stop-opacity:0.4358"/>
				<stop  offset="0.5551" style="stop-color:#2B3956;stop-opacity:0.5551"/>
				<stop  offset="0.6694" style="stop-color:#2F4775;stop-opacity:0.6694"/>
				<stop  offset="0.7801" style="stop-color:#34599B;stop-opacity:0.7801"/>
				<stop  offset="0.8878" style="stop-color:#3A6FC7;stop-opacity:0.8878"/>
				<stop  offset="0.9907" style="stop-color:#4187FA;stop-opacity:0.9907"/>
				<stop  offset="1" style="stop-color:#4289FF"/>
			</linearGradient>
			<path style="opacity:0.5;fill:url(#SVGID_00000132785517639328889910000000593320100900464540_);enable-background:new    ;" d="
				M29.9,23c0,1.5-0.4,3-1.3,4.3h23.5c0.3-1.4,0.4-2.8,0.4-4.3H29.9z"/>
		</g>
	</g>
</g>
</svg>
