<svg id="ep8WYCwZRF61" xmlns="http://www.w3.org/2000/svg" xmlns:xlink="http://www.w3.org/1999/xlink" viewBox="0 0 300 300" shape-rendering="geometricPrecision" text-rendering="geometricPrecision"><defs><linearGradient id="ep8WYCwZRF62-fill" x1="0.946202" y1="1" x2="0.174077" y2="0" spreadMethod="pad" gradientUnits="objectBoundingBox" gradientTransform="translate(0 0)"><stop id="ep8WYCwZRF62-fill-0" offset="0%" stop-color="#093b8e"/><stop id="ep8WYCwZRF62-fill-1" offset="100%" stop-color="#71f6b8"/></linearGradient></defs><path d="M-103.988209,-0.656077C-105.300364,-80.697475,-83.649821,-104.768424,0,-104.378317s104.644287,19.088303,104.378317,104.378317-16.792033,103.332132-104.378317,104.378317-102.676055-19.74438-103.988209-105.034394Z" transform="matrix(1.180665 0 0 1.180665 150 149.982705)" fill="url(#ep8WYCwZRF62-fill)" stroke-width="0"/><polygon points="0,-14.142136 13.44997,-4.37016 8.312539,11.441228 -8.312539,11.441228 -13.44997,-4.37016 0,-14.142136" transform="matrix(-.707107 0.707107-.707107-.707107 110 90)" fill="#fff" stroke-width="0"/><polygon points="0,-0.46548 0.442698,-0.143841 0.273602,0.376581 -0.273602,0.376581 -0.442698,-0.143841 0,-0.46548" transform="matrix(0 1-1 0 120 120)" fill="#d2dbed" stroke-width="0"/><polygon points="0,-22.172634 21.087428,-6.851721 13.032748,17.938038 -13.032748,17.938038 -21.087428,-6.851721 0,-22.172634" transform="matrix(-.47308 0.881019-.881019-.47308 120.46548 109.510565)" fill="#f022e8" stroke-width="0"/><polygon points="0,-22.349977 21.256092,-6.906523 13.136987,18.081511 -13.136987,18.081511 -21.256092,-6.906523 0,-22.349977" transform="matrix(-.894855 0.446356-.446356-.894855 122.330861 140)" fill="#f0f01e" stroke-width="0"/><polygon points="0,-33.684495 32.035859,-10.409081 19.799249,27.251329 -19.799249,27.251329 -32.035859,-10.409081 0,-33.684495" transform="matrix(-.608951 0.793208-.793208-.608951 133.281202 169.487783)" fill="#f06e34" stroke-width="0"/><polygon points="0,-11.3482 10.79278,-3.506787 6.670305,9.180887 -6.670305,9.180887 -10.79278,-3.506787 0,-11.3482" transform="matrix(-.881197 0.472749-.472749-.881197 149.976045 200)" fill="#44f0dc" stroke-width="0"/><polygon points="0,-6.896779 6.559226,-2.131222 4.053825,5.579611 -4.053825,5.579611 -6.559226,-2.131222 0,-6.896779" transform="matrix(-.66537 0.746513-.746513-.66537 164.851463 215.411087)" fill="#f20c26" stroke-width="0"/><polygon points="0,-5.11183 4.861639,-1.579642 3.004658,4.135557 -3.004658,4.135557 -4.861639,-1.579642 0,-5.11183" transform="matrix(-.998361 0.057236-.057236-.998361 169.707421 224.89655)" fill="#1054db" stroke-width="0"/><polygon points="0,-5.191353 4.93727,-1.604216 3.051401,4.199893 -3.051401,4.199893 -4.93727,-1.604216 0,-5.191353" transform="matrix(.053601 0.998562-.998562 0.053601 174.324388 230.27826)" fill="#d7edd2" stroke-width="0"/></svg>