<svg width="368" height="298" viewBox="0 0 368 298" fill="none" xmlns="http://www.w3.org/2000/svg">
<path d="M171.517 3.46116L63.4055 111.572C62.329 112.649 61.7139 114.187 61.7139 115.725V292.117C61.7139 293.962 63.2517 295.5 65.0972 295.5H241.489C243.027 295.5 244.565 294.885 245.641 293.808L353.753 185.697C354.522 184.928 354.829 183.852 354.675 182.775C347.601 139.1 327.302 97.2704 293.776 63.5913C259.943 29.9123 217.96 9.61258 174.439 2.53845C173.362 2.38466 172.286 2.69223 171.517 3.46116Z" fill="#5cb874" stroke="white" stroke-width="2"/>
<path d="M320.072 129.719C320.072 129.719 343.14 153.095 336.219 180.469C329.299 207.842 296.697 210.918 287.316 210.457C277.781 209.842 226.57 169.857 226.57 169.857L264.555 148.02L315.92 124.952L320.072 129.719Z" fill="black" stroke="black" stroke-width="1.2" stroke-miterlimit="10" stroke-linecap="round" stroke-linejoin="round"/>
<path d="M286.394 201.998C289.316 208.15 278.704 218.3 265.325 225.681C249.331 234.293 237.951 232.602 235.029 226.297C232.107 220.145 240.873 209.842 254.714 203.229C268.555 196.616 283.318 195.847 286.394 201.998Z" fill="#5cb874" stroke="black" stroke-width="1.2" stroke-miterlimit="10" stroke-linecap="round" stroke-linejoin="round"/>
<path d="M266.71 206.304L273.323 216.608C273.323 216.608 285.472 208.304 281.32 203.383C277.936 199.23 269.632 202.306 266.71 206.304Z" fill="#5cb874" stroke="black" stroke-width="1.2" stroke-miterlimit="10" stroke-linecap="round" stroke-linejoin="round"/>
<path d="M269.629 218.761C269.629 218.761 245.792 233.986 239.949 224.297C234.105 214.609 261.017 205.843 261.017 205.843L269.629 218.761Z" fill="#5cb874" stroke="black" stroke-width="1.2" stroke-miterlimit="10" stroke-linecap="round" stroke-linejoin="round"/>
<path d="M80.7817 215.07L80.9355 220.299L92.528 221.675L80.7817 215.07Z" fill="black"/>
<path d="M68.4607 264.107L67.9375 269.863L98.7753 273.662L76.4764 265.358L68.4607 264.107Z" fill="black"/>
<path d="M132.147 206.304C127.687 205.843 125.996 203.229 128.61 200.614C131.225 198 136.761 196.308 141.221 196.77H141.374L158.906 178.623L90.01 171.087C86.4729 170.626 81.8593 172.01 79.5526 174.163L32.3276 209.379L32.4942 213.994L64.7891 218.607C67.5573 216.147 74.4776 214.609 79.0912 215.224C83.7048 215.685 81.8705 217.375 82.0647 220.44L114.923 224.297L132.455 206.15C132.301 206.304 132.147 206.304 132.147 206.304Z" fill="black"/>
<path d="M227.648 186.312L158.752 178.776L141.221 196.923C136.761 196.462 131.225 198.153 128.764 200.768C126.303 203.382 127.687 205.843 132.147 206.304L114.616 224.451L146.757 228.142C149.371 225.681 154.6 224.297 159.06 224.758C163.52 225.22 165.365 227.526 163.52 230.141L195.498 233.832L230.724 190.925C232.569 188.772 231.031 186.773 227.648 186.312Z" fill="black"/>
<path d="M163.364 230.141C165.209 227.68 163.364 225.22 159.058 224.758C154.598 224.297 149.215 225.835 146.755 228.295L114.613 224.605L97.0819 242.751H97.2357C102.003 243.366 103.848 245.827 101.388 248.441C98.9273 251.056 92.9297 252.747 88.1623 252.132H88.0086L70.1694 270.125L149.83 279.814C153.829 280.275 158.596 278.891 160.442 276.738L195.505 233.832L163.364 230.141Z" fill="black"/>
<path d="M130.762 200.614C126.302 200.153 124.611 197.539 127.225 194.924C129.839 192.31 135.376 190.618 139.836 191.08H139.989L157.521 172.933L88.6249 165.551C85.0878 165.09 80.4743 166.474 78.1675 168.627L32.3394 209.38L64.4805 213.071C67.2487 210.61 73.0925 208.919 77.7061 209.38C82.3197 209.842 83.8575 212.456 81.2432 214.916L113.384 218.607L130.916 200.768C130.762 200.768 130.762 200.614 130.762 200.614Z" fill="white"/>
<path d="M226.108 180.776L157.212 173.241L139.68 190.341C135.22 189.879 128.473 192.429 126.012 195.043C123.552 197.657 126.147 200.307 130.607 200.768L113.075 219.425L145.216 222.773C147.831 220.313 153.059 218.859 157.519 219.32C161.825 219.781 163.436 222.252 161.591 224.866L194.03 228.529L229.183 185.39C231.029 183.237 229.645 181.084 226.108 180.776Z" fill="white"/>
<path d="M161.827 224.605C163.672 222.144 161.827 219.683 157.521 219.222C153.061 218.761 147.679 220.299 145.218 222.759L113.077 219.068L95.5453 237.215H95.6991C100.466 237.83 102.312 240.291 99.8513 242.905C97.3908 245.519 91.3931 247.211 86.6258 246.596H86.472L68.9404 264.743L148.601 274.431C152.6 274.892 157.367 273.508 159.213 271.355L194.276 228.449L161.827 224.605Z" fill="white"/>
<mask id="mask0" mask-type="alpha" maskUnits="userSpaceOnUse" x="32" y="165" width="132" height="56">
<path d="M133.903 200.614C133.863 199.752 137.376 200.273 139.991 197.659C142.605 195.045 135.377 190.618 139.837 191.08H142.084L163.163 173.068L88.6263 165.551C85.0893 165.09 80.4757 166.474 78.1689 168.627L32.3408 209.38L64.482 213.071C67.2501 210.61 73.094 208.919 77.7076 209.38C82.3211 209.842 83.859 212.456 81.2446 214.916L113.386 218.607L126.538 220.681L139.991 207.077L133.01 200.768C132.856 200.768 133.903 200.614 133.903 200.614Z" fill="white"/>
</mask>
<g mask="url(#mask0)">
<path d="M49.2539 211.226L98.1577 166.628" stroke="#5cb874" stroke-width="1.2" stroke-miterlimit="10" stroke-linecap="round" stroke-linejoin="round"/>
<path d="M226.108 180.776L157.212 173.241L142.449 189.234C137.989 188.773 132.453 190.465 129.992 193.079C127.532 195.693 128.916 198.154 133.375 198.615L113.076 218.915L145.217 222.606C147.831 220.145 153.06 218.761 157.52 219.222C161.826 219.684 163.825 221.991 161.98 224.605L194.121 228.296L229.184 185.39C231.029 183.237 229.645 181.084 226.108 180.776Z" stroke="#5cb874" stroke-width="1.2" stroke-miterlimit="10" stroke-linecap="round" stroke-linejoin="round"/>
<path d="M78.6276 218.915C82.626 219.376 84.1639 221.529 81.8571 223.836C79.5503 226.143 74.4754 227.527 70.3232 227.065C66.171 226.604 64.7869 224.451 67.0937 222.144C69.4005 219.838 74.6292 218.453 78.6276 218.915Z" stroke="black" stroke-width="1.2" stroke-miterlimit="10" stroke-linecap="round" stroke-linejoin="round"/>
<path d="M68.7827 257.822L55.8647 239.676L127.221 219.53" stroke="black" stroke-width="1.2" stroke-miterlimit="10" stroke-linecap="round" stroke-linejoin="round"/>
<path d="M117.841 222.605L101.847 226.911L93.2354 213.993L120.455 205.996L136.91 207.996L127.222 219.53" fill="#5cb874"/>
<path d="M117.841 222.605L101.847 226.911L93.2354 213.993L120.455 205.996L136.91 207.996L127.222 219.53" stroke="#5cb874" stroke-width="1.2" stroke-miterlimit="10" stroke-linecap="round" stroke-linejoin="round"/>
<path d="M137.066 209.073L89.8538 259.207C89.3924 259.822 88.0084 260.13 86.9319 259.976L20.1889 251.979C19.1124 251.825 18.8048 251.364 19.2662 250.749L70.4768 201.537C71.092 200.922 72.3222 200.614 73.245 200.768L135.989 207.996C137.22 207.996 137.681 208.458 137.066 209.073Z" stroke="#5cb874" stroke-width="1.2" stroke-miterlimit="10" stroke-linecap="round" stroke-linejoin="round"/>
<path d="M137.066 209.073L89.8538 259.207C89.3924 259.822 88.0084 260.13 86.9319 259.976L20.1889 251.979C19.1124 251.825 18.8048 251.364 19.2662 250.749L71.8609 201.691C72.476 201.076 73.7063 200.768 74.629 200.922L136.143 207.996C137.22 207.996 137.681 208.458 137.066 209.073Z" fill="#5cb874" stroke="#5cb874" stroke-width="1.2" stroke-miterlimit="10" stroke-linecap="round" stroke-linejoin="round"/>
<path d="M78.6276 218.916C82.626 219.377 84.1639 221.53 81.8571 223.837C79.5503 226.143 74.4754 227.528 70.3232 227.066C66.171 226.605 64.7869 224.452 67.0937 222.145C69.4005 219.838 74.6292 218.454 78.6276 218.916Z" stroke="black" stroke-width="1.2" stroke-miterlimit="10" stroke-linecap="round" stroke-linejoin="round"/>
<path d="M68.7827 257.823L55.8647 239.676L127.221 219.53" stroke="#5cb874" stroke-width="1.2" stroke-miterlimit="10" stroke-linecap="round" stroke-linejoin="round"/>
<path d="M132.914 198.769L113.076 218.761L145.217 222.452C147.831 219.992 153.06 218.608 157.52 219.069C161.826 219.53 163.825 221.837 161.979 224.451L194.121 228.142L229.184 185.236C231.029 183.083 229.491 180.93 226.108 180.622L157.212 173.087" stroke="#5cb874" stroke-width="1.2" stroke-miterlimit="10" stroke-linecap="round" stroke-linejoin="round"/>
<path d="M93.5737 213.879L96.1898 219.111L89.8548 259.206C89.3934 259.822 88.0094 260.129 86.9329 259.975L20.1899 251.979C19.1134 251.825 18.8058 251.363 19.2672 250.748L71.0755 200.922C71.6906 200.307 73.7073 200.768 74.63 200.922L126.013 206.554C127.089 206.554 93.5737 213.879 93.5737 213.879Z" fill="white" stroke="#5cb874" stroke-width="1.2" stroke-miterlimit="10" stroke-linecap="round" stroke-linejoin="round"/>
<path d="M78.6286 218.915C82.627 219.376 84.1649 221.529 81.8581 223.836C79.5513 226.143 74.4764 227.527 70.3242 227.065C66.1719 226.604 64.7879 224.451 67.0947 222.144C69.4014 219.838 74.6302 218.453 78.6286 218.915Z" stroke="black" stroke-width="1.2" stroke-miterlimit="10" stroke-linecap="round" stroke-linejoin="round"/>
<path d="M101.848 226.911L93.2363 213.993L110.838 207.077" stroke="white" stroke-width="1.2" stroke-miterlimit="10" stroke-linecap="round" stroke-linejoin="round"/>
<path d="M157.521 173.087L88.6253 165.551C85.0882 165.09 80.4746 166.474 78.1679 168.627L31.8354 209.17L64.2747 212.832C67.0429 210.372 73.0929 208.708 77.7065 209.17C82.3201 209.631 84.6801 211.786 81.4885 215.239L113.385 218.607" stroke="#5cb874" stroke-width="1.2" stroke-miterlimit="10" stroke-linecap="round" stroke-linejoin="round"/>
<path d="M161.825 224.605C163.671 222.144 161.825 219.684 157.519 219.222C153.06 218.761 147.677 220.299 145.217 222.759L113.075 219.068L95.5439 237.215H95.6977C100.465 237.83 102.31 240.291 99.8499 242.905C97.3893 245.52 91.3917 247.211 86.6243 246.596H86.4705L68.939 264.743L148.6 274.431C152.598 274.893 157.366 273.509 159.211 271.356L194.274 228.449L161.825 224.605Z" stroke="#5cb874" stroke-width="1.2" stroke-miterlimit="10" stroke-linecap="round" stroke-linejoin="round"/>
</g>
<mask id="mask1" mask-type="alpha" maskUnits="userSpaceOnUse" x="68" y="219" width="127" height="56">
<path d="M161.827 224.605C163.673 222.144 161.827 219.683 157.521 219.222C153.062 218.761 147.679 220.299 145.219 222.759L113.077 219.068L95.5458 237.215H95.6996C100.467 237.83 102.312 240.291 99.8518 242.905C97.3913 245.519 91.3936 247.211 86.6263 246.596H86.4725L68.9409 264.743L148.602 274.431C152.6 274.892 157.368 273.508 159.213 271.355L194.276 228.449L161.827 224.605Z" fill="white"/>
</mask>
<g mask="url(#mask1)">
<path d="M128.573 196.962C129.181 197.981 130.431 198.678 132.114 199.028L112.651 218.491C112.489 218.653 112.433 218.895 112.509 219.112C112.585 219.33 112.778 219.485 113.007 219.511L145.148 223.202C145.324 223.222 145.499 223.164 145.628 223.043C146.84 221.902 148.701 220.977 150.834 220.397C152.96 219.819 155.308 219.597 157.458 219.819C159.542 220.043 160.934 220.703 161.597 221.492C161.918 221.875 162.07 222.287 162.067 222.721C162.063 223.162 161.898 223.68 161.489 224.259C161.367 224.432 161.345 224.657 161.432 224.85C161.518 225.043 161.701 225.177 161.911 225.201L194.052 228.892C194.255 228.915 194.456 228.834 194.585 228.675L229.644 185.775C230.68 184.562 230.912 183.193 230.165 182.061C229.464 180.996 228.016 180.341 226.167 180.179L157.277 172.644C157.088 172.623 156.9 172.694 156.771 172.834L142.209 188.61C139.966 188.426 137.508 188.749 135.294 189.43C132.989 190.139 130.883 191.257 129.555 192.668C128.237 194.068 127.78 195.631 128.573 196.962Z" stroke="#5cb874" stroke-width="1.2" stroke-miterlimit="10" stroke-linecap="round" stroke-linejoin="round"/>
<path d="M105.234 261.052L131.531 232.294" stroke="#5cb874" stroke-width="1.2" stroke-miterlimit="10" stroke-linecap="round" stroke-linejoin="round"/>
<path d="M117.844 262.59L149.063 227.68" stroke="#5cb874" stroke-width="1.2" stroke-miterlimit="10" stroke-linecap="round" stroke-linejoin="round"/>
<path d="M130.61 264.128L147.372 244.751" stroke="#5cb874" stroke-width="1.2" stroke-miterlimit="10" stroke-linecap="round" stroke-linejoin="round"/>
<path d="M82.2823 224.26C82.9108 223.632 83.3248 222.968 83.4748 222.288C83.6286 221.591 83.4936 220.924 83.1053 220.348C82.3594 219.241 80.75 218.556 78.6974 218.319C76.6096 218.078 74.2248 218.319 72.068 218.913C69.9216 219.504 67.9264 220.464 66.6704 221.72C66.0446 222.346 65.6231 223.006 65.4592 223.68C65.291 224.371 65.4043 225.041 65.7847 225.625C66.5139 226.743 68.135 227.426 70.2579 227.662C72.4193 227.902 74.8033 227.661 76.9437 227.067C79.0747 226.475 81.0287 225.514 82.2823 224.26Z" stroke="black" stroke-width="1.2" stroke-miterlimit="10" stroke-linecap="round" stroke-linejoin="round"/>
<mask id="path-37-outside-1" maskUnits="userSpaceOnUse" x="53.8662" y="217.53" width="75" height="42" fill="black">
<rect fill="white" x="53.8662" y="217.53" width="75" height="42"/>
<path d="M68.7842 257.822L55.8662 239.676L127.223 219.53"/>
</mask>
<path d="M67.8066 258.518C68.1909 259.058 68.9402 259.184 69.4801 258.8C70.02 258.416 70.1461 257.666 69.7618 257.126L67.8066 258.518ZM55.8662 239.676L55.5402 238.521C55.1645 238.627 54.8639 238.909 54.7343 239.277C54.6047 239.645 54.6622 240.054 54.8886 240.372L55.8662 239.676ZM127.549 220.685C128.187 220.505 128.558 219.842 128.378 219.204C128.198 218.566 127.534 218.195 126.897 218.375L127.549 220.685ZM69.7618 257.126L56.8438 238.98L54.8886 240.372L67.8066 258.518L69.7618 257.126ZM56.1923 240.831L127.549 220.685L126.897 218.375L55.5402 238.521L56.1923 240.831Z" fill="black" mask="url(#path-37-outside-1)"/>
<mask id="path-39-outside-2" maskUnits="userSpaceOnUse" x="91.2363" y="203.996" width="47" height="25" fill="black">
<rect fill="white" x="91.2363" y="203.996" width="47" height="25"/>
<path d="M117.842 222.605L101.848 226.911L93.2363 213.993L120.456 205.996L136.911 207.996L127.223 219.53"/>
</mask>
<path d="M117.842 222.605L101.848 226.911L93.2363 213.993L120.456 205.996L136.911 207.996L127.223 219.53" fill="#5cb874"/>
<path d="M118.154 223.764C118.794 223.592 119.173 222.933 119.001 222.293C118.828 221.653 118.17 221.274 117.53 221.447L118.154 223.764ZM101.848 226.911L100.85 227.577C101.136 228.005 101.663 228.204 102.16 228.07L101.848 226.911ZM93.2363 213.993L92.8981 212.842C92.5319 212.95 92.2388 213.225 92.1085 213.583C91.9782 213.942 92.0262 214.341 92.2379 214.659L93.2363 213.993ZM120.456 205.996L120.601 204.805C120.439 204.786 120.275 204.799 120.118 204.845L120.456 205.996ZM136.911 207.996L137.83 208.768C138.114 208.43 138.189 207.965 138.028 207.555C137.866 207.146 137.493 206.858 137.056 206.804L136.911 207.996ZM126.304 218.758C125.878 219.265 125.944 220.022 126.451 220.448C126.959 220.875 127.716 220.809 128.142 220.301L126.304 218.758ZM117.53 221.447L101.536 225.753L102.16 228.07L118.154 223.764L117.53 221.447ZM102.847 226.246L94.2348 213.328L92.2379 214.659L100.85 227.577L102.847 226.246ZM93.5746 215.145L120.795 207.148L120.118 204.845L92.8981 212.842L93.5746 215.145ZM120.312 207.188L136.767 209.187L137.056 206.804L120.601 204.805L120.312 207.188ZM135.993 207.224L126.304 218.758L128.142 220.301L137.83 208.768L135.993 207.224Z" fill="#5cb874" mask="url(#path-39-outside-2)"/>
<path d="M20.105 252.573L20.105 252.573L20.1185 252.575L86.855 260.571C87.4737 260.658 88.1642 260.613 88.77 260.462C89.3404 260.319 89.9529 260.052 90.3119 259.597L137.498 209.49C137.692 209.295 137.867 209.048 137.921 208.754C137.984 208.418 137.872 208.106 137.645 207.88C137.443 207.677 137.173 207.563 136.913 207.497C136.654 207.43 136.354 207.398 136.026 207.396L73.3289 200.174C72.7735 200.084 72.154 200.133 71.5905 200.285C71.0284 200.436 70.4627 200.706 70.058 201.108L18.8514 250.316C18.8281 250.338 18.8066 250.363 18.7872 250.389C18.6355 250.591 18.5101 250.828 18.4716 251.092C18.4305 251.375 18.4948 251.653 18.6666 251.89C18.9737 252.312 19.5409 252.492 20.105 252.573Z" stroke="#5cb874" stroke-width="1.2" stroke-miterlimit="10" stroke-linecap="round" stroke-linejoin="round"/>
<mask id="path-42-outside-3" maskUnits="userSpaceOnUse" x="30.3379" y="163.463" width="129" height="57" fill="black">
<rect fill="white" x="30.3379" y="163.463" width="129" height="57"/>
<path d="M157.519 173.087L88.6234 165.551C85.0864 165.09 80.4728 166.474 78.166 168.627L32.3379 209.38L64.4791 213.071C67.2472 210.61 73.0911 208.919 77.7047 209.38C82.3182 209.842 83.8561 212.456 81.2417 214.916L113.383 218.607"/>
</mask>
<path d="M157.389 174.28C158.048 174.352 158.64 173.876 158.712 173.217C158.784 172.558 158.309 171.966 157.65 171.894L157.389 174.28ZM88.6234 165.551L88.4682 166.741C88.4765 166.742 88.4847 166.743 88.493 166.744L88.6234 165.551ZM78.166 168.627L78.9634 169.524C78.9706 169.517 78.9777 169.511 78.9848 169.504L78.166 168.627ZM32.3379 209.38L31.5405 208.483C31.1869 208.798 31.0511 209.291 31.1937 209.742C31.3364 210.193 31.7309 210.518 32.201 210.572L32.3379 209.38ZM64.4791 213.071L64.3422 214.263C64.6814 214.302 65.0211 214.195 65.2763 213.968L64.4791 213.071ZM81.2417 214.916L80.4193 214.043C80.0792 214.363 79.9557 214.851 80.1028 215.294C80.2499 215.738 80.6408 216.055 81.1048 216.109L81.2417 214.916ZM113.246 219.799C113.904 219.875 114.499 219.403 114.575 218.744C114.651 218.086 114.178 217.491 113.52 217.415L113.246 219.799ZM157.65 171.894L88.7539 164.358L88.493 166.744L157.389 174.28L157.65 171.894ZM88.7786 164.361C86.8092 164.104 84.6 164.364 82.5929 164.958C80.5932 165.55 78.6776 166.508 77.3472 167.75L78.9848 169.504C79.9612 168.593 81.5057 167.783 83.2739 167.259C85.0344 166.738 86.9006 166.537 88.4682 166.741L88.7786 164.361ZM77.3686 167.73L31.5405 208.483L33.1353 210.277L78.9634 169.524L77.3686 167.73ZM32.201 210.572L64.3422 214.263L64.616 211.879L32.4748 208.188L32.201 210.572ZM65.2763 213.968C66.4771 212.901 68.4425 211.929 70.7258 211.285C72.9951 210.644 75.4565 210.361 77.5852 210.574L77.8241 208.186C75.3392 207.938 72.5719 208.27 70.0739 208.975C67.5898 209.676 65.2493 210.781 63.6818 212.174L65.2763 213.968ZM77.5852 210.574C79.7665 210.792 80.8285 211.492 81.165 212.033C81.3088 212.264 81.3492 212.5 81.2774 212.784C81.1982 213.097 80.9615 213.532 80.4193 214.043L82.0642 215.79C82.8291 215.07 83.3806 214.256 83.6041 213.373C83.8351 212.46 83.6929 211.552 83.2023 210.764C82.2701 209.267 80.2564 208.429 77.8241 208.186L77.5852 210.574ZM81.1048 216.109L113.246 219.799L113.52 217.415L81.3786 213.724L81.1048 216.109Z" fill="#5cb874" mask="url(#path-42-outside-3)"/>
<path d="M20.1041 252.573L20.104 252.573L20.1175 252.575L86.854 260.571C87.4727 260.658 88.1632 260.613 88.769 260.462C89.3394 260.319 89.9519 260.052 90.3109 259.597L137.497 209.49C137.692 209.293 137.862 209.051 137.921 208.765C137.986 208.443 137.895 208.136 137.685 207.902C137.495 207.692 137.238 207.571 136.993 207.501C136.75 207.432 136.474 207.399 136.179 207.396L74.7119 200.328C74.1566 200.238 73.5371 200.287 72.9736 200.439C72.4131 200.59 71.8491 200.858 71.4446 201.259L18.857 250.31C18.8311 250.334 18.8074 250.36 18.7862 250.389C18.6345 250.591 18.5091 250.828 18.4706 251.092C18.4295 251.375 18.4938 251.654 18.6656 251.89C18.9727 252.312 19.5399 252.492 20.1041 252.573Z" fill="#5cb874" stroke="#5cb874" stroke-width="1.2" stroke-miterlimit="10" stroke-linecap="round" stroke-linejoin="round"/>
<path d="M82.2814 224.261C82.9098 223.632 83.3239 222.968 83.4738 222.289C83.6276 221.592 83.4926 220.925 83.1044 220.349C82.3585 219.242 80.749 218.556 78.6964 218.319C76.6086 218.079 74.2238 218.32 72.0671 218.914C69.9206 219.505 67.9254 220.465 66.6694 221.721C66.0436 222.347 65.6221 223.007 65.4582 223.68C65.29 224.372 65.4033 225.042 65.7837 225.625C66.513 226.744 68.134 227.427 70.2569 227.663C72.4183 227.903 74.8024 227.662 76.9428 227.068C79.0737 226.476 81.0278 225.515 82.2814 224.261Z" stroke="black" stroke-width="1.2" stroke-miterlimit="10" stroke-linecap="round" stroke-linejoin="round"/>
<mask id="path-46-outside-4" maskUnits="userSpaceOnUse" x="53.8647" y="217.53" width="75" height="42" fill="black">
<rect fill="white" x="53.8647" y="217.53" width="75" height="42"/>
<path d="M68.7827 257.823L55.8647 239.676L127.221 219.53"/>
</mask>
<path d="M67.8051 258.519C68.1895 259.059 68.9387 259.185 69.4786 258.801C70.0186 258.416 70.1447 257.667 69.7603 257.127L67.8051 258.519ZM55.8647 239.676L55.5387 238.522C55.163 238.628 54.8625 238.91 54.7328 239.278C54.6032 239.646 54.6608 240.054 54.8871 240.372L55.8647 239.676ZM127.547 220.685C128.185 220.505 128.556 219.842 128.376 219.204C128.196 218.567 127.533 218.196 126.895 218.376L127.547 220.685ZM69.7603 257.127L56.8423 238.98L54.8871 240.372L67.8051 258.519L69.7603 257.127ZM56.1908 240.831L127.547 220.685L126.895 218.376L55.5387 238.522L56.1908 240.831Z" fill="#5cb874" mask="url(#path-46-outside-4)"/>
<mask id="path-48-outside-5" maskUnits="userSpaceOnUse" x="91.2354" y="203.997" width="31" height="25" fill="black">
<rect fill="white" x="91.2354" y="203.997" width="31" height="25"/>
<path d="M101.847 226.912L93.2354 213.994L120.455 205.997"/>
</mask>
<path d="M100.849 227.578C101.217 228.129 101.962 228.278 102.513 227.91C103.064 227.543 103.213 226.798 102.846 226.246L100.849 227.578ZM93.2354 213.994L92.8971 212.843C92.531 212.95 92.2378 213.225 92.1075 213.584C91.9772 213.943 92.0252 214.342 92.2369 214.66L93.2354 213.994ZM120.794 207.148C121.43 206.962 121.794 206.295 121.607 205.659C121.42 205.023 120.753 204.659 120.117 204.846L120.794 207.148ZM102.846 226.246L94.2338 213.328L92.2369 214.66L100.849 227.578L102.846 226.246ZM93.5736 215.145L120.794 207.148L120.117 204.846L92.8971 212.843L93.5736 215.145Z" fill="black" mask="url(#path-48-outside-5)"/>
<mask id="path-50-outside-6" maskUnits="userSpaceOnUse" x="111.076" y="171.087" width="121" height="59" fill="black">
<rect fill="white" x="111.076" y="171.087" width="121" height="59"/>
<path d="M132.914 198.769L113.076 218.761L145.217 222.452C147.831 219.992 153.06 218.608 157.52 219.069C161.826 219.53 163.825 221.837 161.979 224.451L194.121 228.142L229.184 185.236C231.029 183.083 229.491 180.93 226.108 180.622L157.212 173.087"/>
</mask>
<path d="M133.766 199.614C134.233 199.144 134.23 198.384 133.759 197.917C133.289 197.451 132.529 197.453 132.062 197.924L133.766 199.614ZM113.076 218.761L112.224 217.916C111.9 218.242 111.791 218.725 111.943 219.159C112.096 219.592 112.482 219.901 112.939 219.953L113.076 218.761ZM145.217 222.452L145.08 223.644C145.431 223.685 145.782 223.568 146.039 223.326L145.217 222.452ZM157.52 219.069L157.648 217.876L157.643 217.875L157.52 219.069ZM161.979 224.451L160.999 223.759C160.755 224.106 160.711 224.555 160.884 224.942C161.057 225.328 161.422 225.595 161.843 225.644L161.979 224.451ZM194.121 228.142L193.984 229.334C194.39 229.381 194.791 229.218 195.05 228.902L194.121 228.142ZM229.184 185.236L228.273 184.455C228.267 184.462 228.261 184.469 228.255 184.477L229.184 185.236ZM226.108 180.622L225.978 181.815C225.985 181.816 225.992 181.817 225.999 181.818L226.108 180.622ZM157.343 171.894C156.684 171.822 156.091 172.298 156.019 172.957C155.947 173.615 156.423 174.208 157.082 174.28L157.343 171.894ZM132.062 197.924L112.224 217.916L113.927 219.607L133.766 199.614L132.062 197.924ZM112.939 219.953L145.08 223.644L145.354 221.26L113.213 217.569L112.939 219.953ZM146.039 223.326C147.156 222.275 148.916 221.387 150.991 220.823C153.052 220.262 155.326 220.048 157.396 220.263L157.643 217.875C155.254 217.628 152.683 217.876 150.361 218.507C148.053 219.134 145.892 220.169 144.394 221.578L146.039 223.326ZM157.392 220.262C159.409 220.478 160.619 221.107 161.138 221.725C161.377 222.009 161.469 222.286 161.467 222.563C161.464 222.853 161.356 223.254 160.999 223.759L162.96 225.143C163.526 224.341 163.859 223.474 163.867 222.582C163.874 221.677 163.543 220.857 162.975 220.181C161.879 218.876 159.936 218.121 157.648 217.876L157.392 220.262ZM161.843 225.644L193.984 229.334L194.258 226.95L162.116 223.259L161.843 225.644ZM195.05 228.902L230.113 185.995L228.255 184.477L193.191 227.383L195.05 228.902ZM230.095 186.017C230.671 185.344 231.051 184.593 231.149 183.796C231.248 182.984 231.043 182.213 230.598 181.561C229.738 180.299 228.09 179.598 226.217 179.427L225.999 181.818C227.509 181.955 228.322 182.484 228.615 182.913C228.747 183.107 228.792 183.297 228.766 183.504C228.739 183.726 228.619 184.051 228.273 184.455L230.095 186.017ZM226.239 179.43L157.343 171.894L157.082 174.28L225.978 181.815L226.239 179.43Z" fill="#5cb874" mask="url(#path-50-outside-6)"/>
<path d="M20.1041 252.573L20.104 252.573L20.1175 252.575L86.854 260.571C87.4727 260.658 88.1632 260.613 88.769 260.462C89.3394 260.319 89.9519 260.052 90.3109 259.597L137.497 209.49C137.692 209.293 137.862 209.051 137.921 208.765C137.986 208.443 137.895 208.136 137.685 207.903C137.495 207.692 137.238 207.571 136.993 207.501C136.75 207.432 136.474 207.399 136.179 207.397L74.7119 200.328C74.1566 200.238 73.5371 200.287 72.9736 200.439C72.4131 200.59 71.8491 200.858 71.4446 201.259L18.857 250.31C18.8311 250.334 18.8074 250.36 18.7862 250.389C18.6345 250.591 18.5091 250.828 18.4706 251.093C18.4295 251.375 18.4938 251.654 18.6656 251.89C18.9727 252.312 19.5399 252.492 20.1041 252.573Z" fill="#5cb874" stroke="#5cb874" stroke-width="1.2" stroke-miterlimit="10" stroke-linecap="round" stroke-linejoin="round"/>
<path d="M82.2814 224.261C82.9098 223.633 83.3239 222.968 83.4738 222.289C83.6276 221.592 83.4926 220.925 83.1044 220.349C82.3585 219.242 80.749 218.556 78.6964 218.32C76.6086 218.079 74.2238 218.32 72.0671 218.914C69.9206 219.505 67.9254 220.465 66.6694 221.721C66.0436 222.347 65.6221 223.007 65.4582 223.681C65.29 224.372 65.4033 225.042 65.7837 225.626C66.513 226.744 68.134 227.427 70.2569 227.663C72.4183 227.903 74.8024 227.662 76.9428 227.068C79.0737 226.476 81.0278 225.515 82.2814 224.261Z" stroke="black" stroke-width="1.2" stroke-miterlimit="10" stroke-linecap="round" stroke-linejoin="round"/>
<mask id="path-54-outside-7" maskUnits="userSpaceOnUse" x="91.2354" y="203.997" width="31" height="25" fill="black">
<rect fill="white" x="91.2354" y="203.997" width="31" height="25"/>
<path d="M101.847 226.912L93.2354 213.994L120.455 205.997"/>
</mask>
<path d="M100.849 227.578C101.217 228.129 101.962 228.278 102.513 227.911C103.064 227.543 103.213 226.798 102.846 226.246L100.849 227.578ZM93.2354 213.994L92.8971 212.843C92.531 212.95 92.2378 213.226 92.1075 213.584C91.9772 213.943 92.0252 214.342 92.2369 214.66L93.2354 213.994ZM120.794 207.149C121.43 206.962 121.794 206.295 121.607 205.659C121.42 205.023 120.753 204.659 120.117 204.846L120.794 207.149ZM102.846 226.246L94.2338 213.328L92.2369 214.66L100.849 227.578L102.846 226.246ZM93.5736 215.145L120.794 207.149L120.117 204.846L92.8971 212.843L93.5736 215.145Z" fill="black" mask="url(#path-54-outside-7)"/>
<path d="M95.5429 237.816H95.6577C97.9678 238.12 99.4014 238.853 100 239.667C100.286 240.055 100.387 240.466 100.316 240.904C100.243 241.359 99.9734 241.898 99.412 242.495C98.2871 243.69 96.2906 244.726 93.9394 245.385C91.6007 246.039 88.9913 246.297 86.7001 246.002C86.6747 245.998 86.649 245.997 86.6233 245.997H86.4695C86.3068 245.997 86.1511 246.063 86.038 246.18L68.5065 264.327C68.3483 264.49 68.2964 264.729 68.3725 264.944C68.4486 265.159 68.6396 265.312 68.8655 265.339L148.526 275.028L148.53 275.028C150.617 275.269 152.889 275.028 154.879 274.451C156.854 273.878 158.635 272.95 159.666 271.747L159.666 271.747L159.675 271.736L194.738 228.83C194.876 228.66 194.912 228.428 194.83 228.225C194.748 228.022 194.561 227.88 194.344 227.854L162.814 224.119C163.011 223.689 163.121 223.25 163.135 222.811C163.16 222.073 162.914 221.385 162.45 220.794C161.54 219.633 159.814 218.865 157.582 218.626L157.58 218.626C155.265 218.387 152.727 218.666 150.452 219.319C148.303 219.936 146.334 220.901 145.004 222.132L113.143 218.473C112.957 218.452 112.773 218.518 112.643 218.652L95.1114 236.799C94.9441 236.972 94.8965 237.229 94.9906 237.45C95.0846 237.672 95.3021 237.816 95.5429 237.816Z" stroke="#5cb874" stroke-width="1.2" stroke-miterlimit="10" stroke-linecap="round" stroke-linejoin="round"/>
</g>
<path d="M94.7777 236.907L94.1626 242.29C94.1626 242.29 96.9307 241.982 98.6224 243.828L100.775 239.368C100.622 239.368 97.0845 237.061 94.7777 236.907Z" fill="black"/>
<path d="M261.789 150.788C261.789 150.788 234.108 140.484 196.123 146.174C158.138 151.864 159.829 171.856 161.828 177.546C163.828 183.237 174.285 197.077 185.204 201.998C196.123 206.92 265.019 189.388 265.019 189.388L261.789 150.788Z" fill="black" stroke="black" stroke-width="1.2" stroke-miterlimit="10" stroke-linecap="round" stroke-linejoin="round"/>
<path d="M263.019 65.8981L265.325 87.428C265.325 87.428 218.728 102.038 218.728 101.269C218.728 100.5 214.884 82.5069 214.884 82.5069C214.884 82.5069 228.724 58.3626 230.724 57.4399C232.723 56.6709 257.482 54.9793 263.019 65.8981Z" fill="white"/>
<path d="M197.659 18.5322C197.659 18.5322 178.897 17.6095 174.284 39.9084C169.67 62.0535 175.822 68.6663 171.977 82.0456C168.132 95.425 161.827 101.423 161.827 101.423C161.827 101.423 173.976 99.5772 178.436 92.5031C178.436 92.5031 173.823 113.879 159.213 123.106C159.213 123.106 178.129 134.487 197.198 112.495C216.267 90.5039 219.958 55.1332 213.038 38.063C206.271 20.9928 197.659 18.5322 197.659 18.5322Z" fill="black" stroke="black" stroke-width="1.2" stroke-miterlimit="10" stroke-linecap="round" stroke-linejoin="round"/>
<path d="M206.271 163.706C206.271 163.706 229.031 171.241 235.029 176.163" stroke="#5cb874" stroke-width="1.2" stroke-miterlimit="10" stroke-linecap="round" stroke-linejoin="round"/>
<path d="M193.508 194.463C193.508 194.463 189.048 190.311 175.207 188.465C161.367 186.62 151.371 187.081 148.603 191.695C145.527 196.924 151.832 204.92 155.215 208.304C161.213 214.301 168.748 216.301 177.053 217.531C183.973 218.607 192.431 219.838 199.352 217.685C207.195 215.378 211.193 199.077 193.508 194.463Z" fill="#5cb874" stroke="black" stroke-width="1.2" stroke-miterlimit="10" stroke-linecap="round" stroke-linejoin="round"/>
<path d="M133.223 140.177C133.223 140.177 122.612 138.485 116.153 139.869C110.002 141.253 113.077 142.637 114.308 142.637C115.538 142.637 120.152 142.176 126.149 143.867C132.147 145.405 140.144 148.789 140.144 148.789L133.223 140.177Z" fill="#5cb874" stroke="black" stroke-width="1.2" stroke-miterlimit="10" stroke-linecap="round" stroke-linejoin="round"/>
<path d="M146.757 143.406C146.757 143.406 151.063 146.636 151.832 150.173C152.601 153.71 151.832 160.169 151.832 160.169C151.832 160.169 135.531 162.168 134.454 162.476C133.378 162.783 146.757 143.406 146.757 143.406Z" fill="#5cb874"/>
<path d="M152.601 160.323C152.601 160.323 137.121 163.189 130.201 163.65" stroke="black" stroke-width="1.2" stroke-miterlimit="10" stroke-linecap="round" stroke-linejoin="round"/>
<path d="M118.152 175.086L141.528 155.863L141.374 148.481L114.307 144.944C117.845 142.022 114.923 138.331 110.924 136.793C106.926 135.409 103.235 136.793 99.6979 139.715L71.5551 129.719L14.8082 170.934C11.8863 173.24 12.6552 181.237 16.0385 182.468L81.0898 205.535L105.542 185.543C109.54 186.927 115.692 185.697 119.075 182.929C120.613 181.699 121.382 180.93 121.689 179.699C122.304 178.008 121.382 172.779 121.382 172.01C121.382 171.549 118.767 175.24 118.152 175.086Z" fill="black"/>
<path d="M118.307 169.242L142.759 149.096L114.617 139.1C118.154 136.178 117.692 132.641 113.694 131.257C109.695 129.873 103.544 130.949 100.007 133.871L71.8641 123.875L15.4248 170.165C12.5029 172.472 12.9642 175.393 16.1937 176.624L81.245 199.845L105.697 179.699C109.695 181.084 115.847 179.853 119.23 177.085C122.613 174.163 122.306 170.78 118.307 169.242Z" fill="white"/>
<mask id="mask2" mask-type="alpha" maskUnits="userSpaceOnUse" x="13" y="123" width="132" height="77">
<path d="M118.307 169.242L144.328 147.954L115.663 139.1C119.2 136.178 117.692 132.641 113.694 131.257C109.695 129.873 103.544 130.949 100.007 133.871L71.8641 123.875L15.4248 170.165C12.5029 172.472 12.9642 175.393 16.1937 176.624L81.2451 199.845L105.697 179.699C109.695 181.084 115.847 179.853 119.23 177.085C122.613 174.163 122.306 170.78 118.307 169.242Z" fill="white"/>
</mask>
<g mask="url(#mask2)">
<path d="M25.2646 179.853L86.6251 129.258" stroke="#5cb874" stroke-width="1.2" stroke-miterlimit="10" stroke-linecap="round" stroke-linejoin="round"/>
<path d="M104.598 155.127C109.242 154.099 112.531 151.115 111.943 148.461C111.356 145.807 107.115 144.489 102.471 145.517C97.8272 146.545 94.5386 149.529 95.126 152.183C95.7133 154.837 99.9541 156.155 104.598 155.127Z" fill="#5cb874" stroke="#5cb874" stroke-width="1.2" stroke-miterlimit="10" stroke-linecap="round" stroke-linejoin="round"/>
<path d="M155.364 152.326L81.2397 166.474L84.3155 191.387L91.851 194.463" fill="#5cb874"/>
<path d="M155.364 152.326L81.2397 166.474L84.3155 191.387L91.851 194.463" stroke="#5cb874" stroke-width="1.2" stroke-miterlimit="10" stroke-linecap="round" stroke-linejoin="round"/>
<path d="M155.057 134.025L126.299 139.408L128.606 157.4L138.602 156.324" fill="#5cb874"/>
<path d="M155.057 134.025L126.299 139.408L128.606 157.4L138.602 156.324" stroke="#5cb874" stroke-width="1.2" stroke-miterlimit="10" stroke-linecap="round" stroke-linejoin="round"/>
<path d="M169.513 140.792L102.309 196.154C101.54 196.77 100.31 197.077 99.387 196.77L44.4855 177.085C43.5628 176.777 43.5628 176.009 44.3317 175.393L111.536 120.031C112.305 119.415 113.535 119.108 114.458 119.415L169.359 139.1C170.128 139.408 170.128 140.176 169.513 140.792Z" stroke="#5cb874" stroke-width="1.2" stroke-miterlimit="10" stroke-linecap="round" stroke-linejoin="round"/>
<path d="M118.303 169.242L142.231 149L114.613 139.1C118.15 136.178 117.688 132.641 113.69 131.257C109.691 129.873 103.54 130.949 100.003 133.871L71.8602 123.875L15.4209 170.165C12.499 172.471 12.9603 175.393 16.1898 176.624L81.2411 199.845L105.693 179.699C109.691 181.083 115.843 179.853 119.226 177.085C122.609 174.163 122.302 170.78 118.303 169.242Z" stroke="#5cb874" stroke-width="1.2" stroke-miterlimit="10" stroke-linecap="round" stroke-linejoin="round"/>
</g>
<path d="M25.2776 174.265C28.0142 173.659 29.95 171.891 29.6013 170.315C29.2526 168.739 26.7514 167.953 24.0147 168.559C21.2781 169.164 19.3423 170.933 19.691 172.508C20.0397 174.084 22.5409 174.87 25.2776 174.265Z" fill="white" stroke="#5cb874" stroke-width="1.2" stroke-miterlimit="10" stroke-linecap="round" stroke-linejoin="round"/>
<path d="M35.5911 165.808C38.3277 165.202 40.2635 163.434 39.9148 161.858C39.5661 160.283 37.0649 159.496 34.3282 160.102C31.5915 160.708 29.6557 162.476 30.0045 164.052C30.3532 165.627 32.8544 166.414 35.5911 165.808Z" fill="#5cb874" stroke="#5cb874" stroke-width="1.2" stroke-miterlimit="10" stroke-linecap="round" stroke-linejoin="round"/>
<path d="M45.9001 157.351C48.6368 156.746 50.5726 154.977 50.2239 153.402C49.8751 151.826 47.3739 151.04 44.6373 151.645C41.9006 152.251 39.9648 154.019 40.3136 155.595C40.6623 157.171 43.1635 157.957 45.9001 157.351Z" fill="#5cb874" stroke="#5cb874" stroke-width="1.2" stroke-miterlimit="10" stroke-linecap="round" stroke-linejoin="round"/>
<path d="M215.653 69.4352C215.653 69.4352 206.272 77.2782 202.735 87.1205C199.198 96.9628 195.199 109.266 186.434 120.646C177.668 132.026 147.218 143.098 147.218 143.098C147.218 143.098 154.6 147.251 152.139 161.091C152.139 160.63 173.516 156.478 179.513 154.325C206.272 144.79 218.421 125.874 228.263 103.268" fill="white"/>
<path d="M125.841 144.483L137.836 148.942" stroke="white" stroke-width="1.2" stroke-miterlimit="10" stroke-linecap="round" stroke-linejoin="round"/>
<path d="M147.834 143.406C147.834 143.406 138.606 140.638 135.069 139.1C131.686 137.562 128.764 135.717 128.149 137.716C127.534 139.715 130.61 142.637 133.685 144.483C136.761 146.328 139.837 152.172 143.835 153.402" fill="#5cb874"/>
<path d="M147.834 143.406C147.834 143.406 138.606 140.638 135.069 139.1C131.686 137.562 128.764 135.717 128.149 137.716C127.534 139.715 130.61 142.637 133.685 144.483C136.761 146.328 139.837 152.172 143.835 153.402" stroke="black" stroke-width="1.2" stroke-miterlimit="10" stroke-linecap="round" stroke-linejoin="round"/>
<path d="M151.368 189.234C151.368 189.234 149.061 192.771 151.214 197.539C154.598 204.92 161.518 210.149 169.207 212.456C174.282 213.994 179.511 214.763 184.74 215.531C186.124 215.685 188.123 215.993 190.122 216.147" fill="#5cb874"/>
<path d="M151.368 189.234C151.368 189.234 149.061 192.771 151.214 197.539C154.598 204.92 161.518 210.149 169.207 212.456C174.282 213.994 179.511 214.763 184.74 215.531C186.124 215.685 188.123 215.993 190.122 216.147" stroke="black" stroke-width="1.2" stroke-miterlimit="10" stroke-linecap="round" stroke-linejoin="round"/>
<path d="M215.805 100.961C215.805 100.5 220.572 117.416 227.031 123.414C237.95 133.564 260.249 151.095 260.249 151.095C260.249 151.095 308.384 139.561 314.381 129.258C314.381 129.258 301.463 117.109 292.544 103.268C282.394 87.5819 266.708 68.5125 266.708 68.5125" fill="white"/>
<path d="M215.805 100.961C215.805 100.5 220.572 117.416 227.031 123.414C237.95 133.564 260.249 151.095 260.249 151.095C260.249 151.095 308.384 139.561 314.381 129.258C314.381 129.258 301.463 117.109 292.544 103.268C282.394 87.5819 266.708 68.5125 266.708 68.5125" stroke="black" stroke-width="1.2" stroke-miterlimit="10" stroke-linecap="round" stroke-linejoin="round"/>
<path d="M182.125 194.924C182.125 194.924 177.512 198.307 180.433 204.305Z" fill="#5cb874"/>
<path d="M182.125 194.924C182.125 194.924 177.512 198.307 180.433 204.305" stroke="black" stroke-width="1.2" stroke-miterlimit="10" stroke-linecap="round" stroke-linejoin="round"/>
<path d="M176.282 193.54C175.667 193.694 171.668 196.77 173.821 202.614Z" fill="#5cb874"/>
<path d="M176.282 193.54C175.667 193.694 171.668 196.77 173.821 202.614" stroke="black" stroke-width="1.2" stroke-miterlimit="10" stroke-linecap="round" stroke-linejoin="round"/>
<path d="M125.689 205.997L95.3931 237.061H95.5468C100.314 237.676 102.16 240.137 99.6991 242.751C97.2385 245.366 91.2408 247.057 86.4735 246.442L86.3197 246.243L68.9849 264.107" stroke="white" stroke-width="1.2" stroke-miterlimit="10" stroke-linecap="round" stroke-linejoin="round"/>
<path d="M81.3843 215.07L127.533 220.145" stroke="white" stroke-width="1.2" stroke-miterlimit="10" stroke-linecap="round" stroke-linejoin="round"/>
<path d="M295.775 150.788C295.775 150.788 312.23 149.096 323.457 155.094" stroke="#5cb874" stroke-width="1.2" stroke-miterlimit="10" stroke-linecap="round" stroke-linejoin="round"/>
<path d="M247.025 160.784C247.025 160.784 231.8 166.781 220.574 178.93C209.348 191.08 189.817 194.309 189.817 194.309C189.817 194.309 183.512 203.536 190.739 211.533C197.967 219.53 236.568 215.531 249.486 212.61C258.559 210.61 272.553 203.075 279.935 198.923C283.011 197.231 285.01 196.001 285.01 196.001" fill="black"/>
<path d="M247.025 160.784C247.025 160.784 231.8 166.781 220.574 178.93C209.348 191.08 189.817 194.309 189.817 194.309C189.817 194.309 183.512 203.536 190.739 211.533C197.967 219.53 236.568 215.531 249.486 212.61C258.559 210.61 272.553 203.075 279.935 198.923C283.011 197.231 285.01 196.001 285.01 196.001" stroke="black" stroke-width="1.2" stroke-miterlimit="10" stroke-linecap="round" stroke-linejoin="round"/>
<path d="M270.707 150.788C263.479 152.633 235.798 164.628 226.417 173.24C220.112 179.084 214.114 184.313 206.271 188.004C200.581 190.618 194.43 192.617 188.278 193.694" stroke="#5cb874" stroke-width="1.2" stroke-miterlimit="10" stroke-linecap="round" stroke-linejoin="round"/>
<path d="M280.242 200.614C285.163 198 294.237 189.695 294.237 189.695Z" fill="black"/>
<path d="M280.242 200.614C285.163 198 294.237 189.695 294.237 189.695" stroke="#5cb874" stroke-width="1.2" stroke-miterlimit="10" stroke-linecap="round" stroke-linejoin="round"/>
<path d="M270.247 85.8902C270.708 87.1205 287.009 105.421 293.776 105.882L282.242 88.0432L270.247 85.8902Z" fill="#5cb874"/>
<path d="M216.114 104.344C216.114 104.344 205.657 140.023 177.976 153.71C177.976 153.71 193.969 151.249 205.657 138.485C217.345 125.721 222.112 115.571 222.112 115.571L216.114 104.344Z" fill="#5cb874"/>
<path d="M210.424 74.51C207.656 77.7395 204.427 82.0455 202.581 87.1204C199.044 96.9627 195.046 109.266 186.28 120.646C177.514 132.026 147.218 143.098 147.218 143.098C147.218 143.098 154.6 147.251 152.139 161.091C152.139 160.63 173.516 156.478 179.513 154.325C201.043 146.635 213.192 132.949 222.266 116.032" stroke="black" stroke-width="1.2" stroke-miterlimit="10" stroke-linecap="round" stroke-linejoin="round"/>
<path d="M215.805 100.961C215.805 100.5 220.572 117.416 227.031 123.414C237.95 133.564 260.249 151.095 260.249 151.095C260.249 151.095 308.384 139.561 314.381 129.258C314.381 129.258 301.463 117.109 292.544 103.268C282.394 87.5819 266.708 68.5125 266.708 68.5125" stroke="black" stroke-width="1.2" stroke-miterlimit="10" stroke-linecap="round" stroke-linejoin="round"/>
<path d="M300.387 135.717C300.387 135.717 288.391 135.102 280.241 138.639C273.474 141.561 264.555 150.788 261.633 155.401C258.711 160.015 260.864 159.554 261.94 159.092C263.017 158.631 272.859 150.48 272.859 150.48C272.859 150.48 263.632 162.937 264.555 165.397C265.477 167.858 276.242 154.479 276.242 154.479C276.242 154.479 269.476 165.859 271.014 168.627C272.552 171.549 281.01 154.017 281.01 154.017C281.01 154.017 278.088 165.09 280.241 166.32C283.624 168.319 282.394 154.479 287.315 154.017C292.236 153.556 299.003 153.095 302.232 151.095C305.462 149.25 307.615 145.405 307.615 145.405L300.387 135.717Z" fill="#5cb874" stroke="black" stroke-width="1.2" stroke-miterlimit="10" stroke-linecap="round" stroke-linejoin="round"/>
<path d="M226.724 59.593C226.724 59.593 248.562 48.0591 278.242 56.5173C309.153 65.4368 330.529 92.5031 320.072 124.491C318.073 130.488 315.305 136.332 312.229 141.868C309.307 147.405 307.769 149.711 303.002 144.944C299.926 142.022 297.465 139.1 295.774 135.563C302.387 120.338 302.848 99.731 286.547 90.5039C280.703 87.2744 273.936 85.8903 267.477 85.2752" fill="white"/>
<path d="M226.724 59.593C226.724 59.593 248.562 48.0591 278.242 56.5173C309.153 65.4368 330.529 92.5031 320.072 124.491C318.073 130.488 315.305 136.332 312.229 141.868C309.307 147.405 307.769 149.711 303.002 144.944C299.926 142.022 297.465 139.1 295.774 135.563C302.387 120.338 302.848 99.731 286.547 90.5039C280.703 87.2744 273.936 85.8903 267.477 85.2752" stroke="black" stroke-width="1.2" stroke-miterlimit="10" stroke-linecap="round" stroke-linejoin="round"/>
<path d="M238.565 55.4407C238.565 55.4407 285.162 56.5172 302.694 81.1229C320.379 105.729 304.231 146.02 304.231 146.02C304.231 146.02 306.692 150.326 309.614 145.867C316.996 134.794 329.914 105.575 317.611 86.3516C305.308 67.1284 277.626 47.4439 238.565 55.4407Z" fill="#5cb874"/>
<path d="M213.498 58.824C213.498 58.824 206.271 71.1268 198.12 71.4344C189.969 71.742 183.664 60.8232 181.819 53.4415C179.973 46.0598 181.203 37.7553 183.51 35.9099C185.817 34.2183 207.501 32.988 207.501 32.988L213.498 58.824Z" fill="#5cb874"/>
<path d="M204.425 69.1276L216.882 82.0456C216.882 82.0456 227.032 83.5834 230.107 73.4336C233.337 63.2837 229.8 60.3618 229.8 60.3618L212.884 51.7498" fill="#5cb874"/>
<path d="M204.425 69.1276L216.882 82.0456C216.882 82.0456 227.032 83.5834 230.107 73.4336C233.337 63.2837 229.8 60.3618 229.8 60.3618L212.884 51.7498" stroke="black" stroke-width="1.2" stroke-miterlimit="10" stroke-linecap="round" stroke-linejoin="round"/>
<path d="M184.587 39.1394C184.587 39.1394 182.127 46.6749 186.894 57.2861C191.662 67.8973 199.966 69.7427 202.734 69.5889C205.502 69.4351 202.888 70.2041 202.888 70.2041C202.888 70.2041 197.044 73.2798 192.431 69.2814C187.817 65.2829 182.896 59.1315 181.05 49.443C179.205 39.7545 184.587 39.1394 184.587 39.1394Z" fill="white"/>
<path d="M183.202 31.9114C183.202 31.9114 179.511 39.9083 181.203 50.3657C183.202 62.8223 192.737 71.4343 198.119 71.4343C204.578 71.2805 210.268 62.8223 210.268 62.8223" stroke="black" stroke-width="1.2" stroke-miterlimit="10" stroke-linecap="round" stroke-linejoin="round"/>
<path d="M185.816 55.7482C185.816 55.7482 180.588 58.5163 182.433 61.4382C184.125 64.5139 188.892 60.6693 188.892 60.6693" fill="white"/>
<path d="M185.816 55.7482C185.816 55.7482 180.588 58.5163 182.433 61.4382C184.125 64.5139 188.892 60.6693 188.892 60.6693" stroke="black" stroke-width="1.2" stroke-miterlimit="10" stroke-linecap="round" stroke-linejoin="round"/>
<path d="M177.976 44.522C177.976 44.522 180.129 45.5985 185.05 41.1387C187.664 38.6781 192.431 36.9865 194.738 38.6781C197.045 40.3698 201.043 46.675 201.043 46.675C201.043 46.675 205.657 41.7538 207.964 46.0598C210.271 50.3658 206.887 53.2878 206.887 53.2878C206.887 53.2878 213.193 57.2862 213.654 57.5938C218.114 59.7468 223.189 61.1308 228.11 59.4392C225.034 56.0559 223.804 51.2886 223.189 46.675C222.573 42.0614 222.266 37.4478 220.574 33.1418C216.114 21.6079 203.043 15.4565 191.355 19.6087C184.281 22.0693 178.898 30.0661 177.976 44.522Z" fill="black" stroke="black" stroke-width="1.2" stroke-miterlimit="10" stroke-linecap="round" stroke-linejoin="round"/>
<path d="M199.813 57.7476C199.813 57.7476 201.351 60.3619 199.044 63.899" stroke="black" stroke-width="1.2" stroke-miterlimit="10" stroke-linecap="round" stroke-linejoin="round"/>
<path d="M226.724 59.593C226.724 59.593 248.562 48.0591 278.242 56.5173C309.153 65.4368 330.529 92.5031 320.072 124.491C318.073 130.488 315.305 136.332 312.229 141.868C309.307 147.405 307.769 149.711 303.002 144.944C299.926 142.022 297.465 139.1 295.774 135.563C302.387 120.338 302.848 99.731 286.547 90.5039C280.703 87.2744 273.936 85.8903 267.477 85.2752" stroke="black" stroke-width="1.2" stroke-miterlimit="10" stroke-linecap="round" stroke-linejoin="round"/>
</svg>
